<?xml version="1.0" encoding="UTF-8"?><svg id="Calque_1" xmlns="http://www.w3.org/2000/svg" viewBox="0 0 2739.22 257.09"><defs><style>.cls-1{fill:#fff;}.cls-2{fill:#33ee87;}</style></defs><path class="cls-2" d="M556.81,.7c-12.2,0-22.31,5.77-30.07,17.16l-157.06,231.06c-1.62,2.4-.99,5.65,1.41,7.27,.86,.58,1.88,.9,2.92,.9h46.07c1.74,0,3.36-.86,4.34-2.3L556.04,60.31l129.18,194.43c.97,1.46,2.6,2.34,4.36,2.34h48.24c2.89,0,5.23-2.34,5.23-5.23,0-1.04-.31-2.06-.89-2.93L586.91,17.89c-7.2-11.05-17.9-17.18-30.1-17.18h0Z"/><g><path class="cls-1" d="M270.02,1.64h-39.16c-2.89,0-5.23,2.34-5.24,5.23V101.74H49.64V6.87c0-2.89-2.34-5.23-5.23-5.23H5.24C2.35,1.64,0,3.98,0,6.87V249.55c0,2.89,2.35,5.23,5.24,5.24H44.41c2.89,0,5.23-2.35,5.23-5.24v-103.96H225.62v103.96c0,2.89,2.35,5.23,5.24,5.24h39.16c2.89,0,5.23-2.35,5.23-5.24V6.87c0-2.89-2.34-5.23-5.23-5.23h0Z"/><path class="cls-1" d="M1029.62,1.64h-163.23c-1.62,0-3.15,.75-4.14,2.03l-25.75,33.36c-1.76,2.29-1.34,5.57,.94,7.34,.92,.71,2.04,1.09,3.2,1.09h174.48c56.09,0,81.09,13.72,81.09,44.47,0,10-5.84,42.66-81.09,42.66h-173.72c-2.89,0-5.23,2.34-5.23,5.23h0v111.74c0,2.89,2.34,5.23,5.23,5.24h39.16c2.89,0,5.23-2.35,5.23-5.24v-74.95h132.01l85.18,78.77c.98,.91,2.27,1.41,3.6,1.4h53.31c2.89,0,5.23-2.36,5.22-5.25,0-1.5-.65-2.92-1.77-3.91l-90.72-79.76c46.81-7.8,74.31-36.37,74.31-78.09,0-63.49-60.61-86.11-117.31-86.11h0Z"/><path class="cls-1" d="M1584.28,5.24h0m0-5.24h-46.08c-1.74,0-3.36,.86-4.34,2.3l-131.63,194.48L1273.06,2.36c-.97-1.46-2.6-2.34-4.36-2.34h-48.23c-2.89,0-5.24,2.35-5.23,5.24,0,1.04,.31,2.05,.89,2.91l155.23,231.05c7.2,11.05,17.9,17.18,30.1,17.18s22.32-5.77,30.07-17.16L1588.46,8.42c1.74-2.31,1.29-5.59-1.02-7.34-.9-.68-2.01-1.06-3.14-1.06l-.02-.02Zm0,10.47"/><path class="cls-1" d="M1949.13,6.87h0m-11.28,106.27h0m11.25-111.5h-257.52c-2.89,0-5.23,2.34-5.23,5.23h0V249.55c0,2.89,2.34,5.23,5.23,5.24h233.59c1.61,0,3.13-.74,4.12-2.02l25.75-33.01c1.77-2.28,1.36-5.58-.92-7.35-.92-.71-2.04-1.1-3.2-1.1h-214.97v-63.91h179.39c1.62,0,3.15-.75,4.14-2.03l22.35-28.8c1.88-2.19,1.64-5.49-.55-7.38-.95-.81-2.15-1.26-3.4-1.27h-201.92V45.46h187.4c1.62,0,3.15-.75,4.14-2.03l25.6-33.16c1.88-2.19,1.63-5.48-.56-7.36-.95-.81-2.15-1.26-3.4-1.26h-.04Zm0,10.46"/><path class="cls-1" d="M2343.15,6.87h0m0-5.23h-196.23c-67.51,0-101.71,25.06-101.71,74.5,0,58.89,51.77,71.25,95.2,71.25h97.94c51.66,0,66.61,6.89,66.61,30.67,0,8.22,0,33.22-50.26,33.22h-190.47c-1.61,0-3.13,.74-4.12,2.02l-25.76,33.01c-1.77,2.29-1.36,5.58,.92,7.35,.92,.71,2.05,1.1,3.21,1.1h213.33c67.25,0,101.34-25.68,101.34-76.33,0-46.81-31.9-70.53-94.81-70.53h-97.98c-52.28,0-66.61-6.3-66.61-29.22s16.44-33.22,50.26-33.22h173.72c1.65,.02,3.2-.73,4.21-2.03l25.2-33.16c1.86-2.2,1.59-5.49-.61-7.36-.94-.8-2.14-1.24-3.38-1.24v-.03Zm0,10.46"/><path class="cls-1" d="M2733.99,1.64h-280.72c-1.6,0-3.11,.73-4.1,1.97l-26.49,33.37c-1.79,2.26-1.41,5.55,.85,7.35,.92,.73,2.07,1.13,3.25,1.13h123.54V249.55c0,2.89,2.34,5.23,5.23,5.24h39.55c2.89,0,5.23-2.35,5.23-5.24V45.46h107.92c1.62,0,3.15-.75,4.14-2.03l25.75-33.36c1.76-2.29,1.34-5.57-.94-7.34-.92-.71-2.04-1.09-3.2-1.09h0Zm0,10.46"/></g></svg>