<svg width="36" height="36" viewBox="0 0 36 36" fill="none" xmlns="http://www.w3.org/2000/svg">
<path d="M18 1.8C9.0826 1.8 1.8 9.0826 1.8 18C1.8 20.5665 2.57676 22.9665 3.95616 24.9622L1.8 27L5.03784 24.8438C7.03353 26.2232 9.43353 27 12 27C20.9174 27 28.2 19.7174 28.2 10.8C28.2 1.8826 20.9174 1.8 12 1.8ZM9.13333 19.6L8.46667 18.9333C7.46667 18.1333 6.8 17.3333 6.8 15.9333C6.8 14.3333 7.93333 13.3333 9.13333 12.6C9.93333 12.2 10.6 11.8 10.6 11.0667C10.6 10.3333 10.0667 9.8 9.33333 9.8C8.6 9.8 7.86667 10.2667 7.06667 10.8C6.33333 11.3333 5.66667 10.7333 6.13333 9.73333C7.13333 8.73333 8.46667 7.93333 9.66667 7.93333C10.9333 7.93333 11.8667 8.73333 11.8667 10.2667C11.8667 11.5333 10.8667 12.5333 9.66667 13.3333C8.93333 13.7333 8.26667 14.2667 8.26667 14.8667C8.26667 15.6667 8.73333 16.1333 9.33333 16.1333C10 16.1333 10.8 15.7333 11.6 15.2L12.3333 15.7333C11.3333 16.7333 10 17.6 9.13333 17.6V19.6ZM17.8667 19.6V18.0667C18.8667 17.2 19.6 16.3333 19.6 14.9333C19.6 13.3333 18.5333 12.3333 17.4667 11.6C16.6667 11.2 16 10.8 16 10.0667C16 9.33333 16.5333 8.8 17.2667 8.8C17.9333 8.8 18.6667 9.2 19.3333 9.66667L20.0667 9.06667C19.0667 8.13333 17.7333 7.4 16.5333 7.4C15.2667 7.4 14.4 8.2 14.4 9.73333C14.4 11 15.3333 12 16.5333 12.8C17.2667 13.2 17.8667 13.7333 17.8667 14.3333V19.6Z" transform="translate(3 3)" fill="#C5A572"/>
</svg> 