<svg width="32" height="32" viewBox="0 0 32 32" fill="none" xmlns="http://www.w3.org/2000/svg">
  <!-- Background circle -->
  <circle cx="16" cy="16" r="16" fill="#1a2942"/>
  
  <!-- Message bubble -->
  <path d="M8 10c0-1.1.9-2 2-2h12c1.1 0 2 .9 2 2v8c0 1.1-.9 2-2 2h-3l-3 3-3-3h-3c-1.1 0-2-.9-2-2v-8z" fill="#c5a572"/>
  
  <!-- Euro symbol -->
  <path d="M16 12c-1.1 0-2 .9-2 2h-1v1h1c0 .6.4 1 1 1h2v1h-2c-.6 0-1 .4-1 1h1c0 1.1.9 2 2 2s2-.9 2-2h1v-1h-1c0-.6-.4-1-1-1h-2v-1h2c.6 0 1-.4 1-1h-1c0-1.1-.9-2-2-2z" fill="#1a2942"/>
</svg>
