<svg xmlns="http://www.w3.org/2000/svg" width="512" height="512" viewBox="0 0 512 512">
  <defs>
    <linearGradient id="bgGradient" x1="0%" y1="0%" x2="100%" y2="100%">
      <stop offset="0%" stop-color="#162238" stop-opacity="1" />
      <stop offset="100%" stop-color="#1E3253" stop-opacity="1" />
    </linearGradient>
    <linearGradient id="goldGradient" x1="0%" y1="0%" x2="100%" y2="100%">
      <stop offset="0%" stop-color="#c5a572" stop-opacity="1" />
      <stop offset="100%" stop-color="#e8cfa0" stop-opacity="1" />
    </linearGradient>
  </defs>
  
  <!-- Background avec coins arrondis -->
  <rect width="512" height="512" rx="85" ry="85" fill="url(#bgGradient)"/>
  
  <!-- Cercle décoratif en arrière-plan -->
  <circle cx="256" cy="256" r="180" fill="none" stroke="#c5a572" stroke-width="2" opacity="0.2"/>
  
  <!-- Bulle de chat principale -->
  <path d="M120 180C120 145.817 147.817 118 182 118H330C364.183 118 392 145.817 392 180V280C392 314.183 364.183 342 330 342H220L180 382L140 342H120C85.817 342 58 314.183 58 280V180C58 145.817 85.817 118 120 118Z" 
        fill="url(#goldGradient)" 
        stroke="#c5a572" 
        stroke-width="3"/>
  
  <!-- Texte FISCAL.IA stylisé -->
  <text x="256" y="220" font-family="Arial, sans-serif" font-size="32" font-weight="bold" fill="#162238" text-anchor="middle">
    FISCAL
  </text>
  <text x="256" y="255" font-family="Arial, sans-serif" font-size="28" font-weight="bold" fill="#162238" text-anchor="middle">
    .IA
  </text>
  
  <!-- Symbole Euro intégré -->
  <circle cx="320" cy="290" r="20" fill="#162238" opacity="0.8"/>
  <text x="320" y="298" font-family="Arial, sans-serif" font-size="18" font-weight="bold" fill="#c5a572" text-anchor="middle">
    €
  </text>
  
  <!-- Points décoratifs pour représenter l'IA -->
  <circle cx="200" cy="160" r="4" fill="#c5a572" opacity="0.6"/>
  <circle cx="230" cy="170" r="3" fill="#c5a572" opacity="0.4"/>
  <circle cx="280" cy="160" r="3" fill="#c5a572" opacity="0.5"/>
  <circle cx="310" cy="170" r="4" fill="#c5a572" opacity="0.6"/>
</svg>
