<svg width="16" height="16" viewBox="0 0 48 48" fill="none" xmlns="http://www.w3.org/2000/svg">
  <!-- MessageSquare Icon (bulle de chat) en or -->
  <path d="M8 4C5.79086 4 4 5.79086 4 8V28C4 30.2091 5.79086 32 8 32H16L20 36L24 32H40C42.2091 32 44 30.2091 44 28V8C44 5.79086 42.2091 4 40 4H8Z" fill="#c5a572"/>
  
  <!-- Euro Symbol en superposition sur fond bleu foncé -->
  <circle cx="36" cy="12" r="6" fill="#162238"/>
  <path d="M34 8C35.1046 8 36 8.89543 36 10C36 11.1046 35.1046 12 34 12H32V14H34C35.1046 14 36 14.8954 36 16C36 17.1046 35.1046 18 34 18H32V20H30V18H28V16H30V14H28V12H30V10H28V8H30V10H32V8H34ZM34 10H32V12H34C35.1046 12 36 12.8954 36 14C36 15.1046 35.1046 16 34 16H32V18H34C35.1046 18 36 18.8954 36 20C36 21.1046 35.1046 22 34 22H32V20H34C35.1046 20 36 19.1046 36 18C36 16.8954 35.1046 16 34 16H32V14H34C35.1046 14 36 13.1046 36 12C36 10.8954 35.1046 10 34 10H32V8H34C35.1046 8 36 8.89543 36 10C36 11.1046 35.1046 12 34 12H32V10H34Z" fill="#c5a572"/>
</svg> 