<svg xmlns="http://www.w3.org/2000/svg" width="120" height="114" viewBox="0 0 120 114" version="1.1">
  <defs>
    <clipPath id="roundedRect">
      <rect x="0" y="0" width="120" height="114" rx="20" ry="20"/>
    </clipPath>
  </defs>
  <g clip-path="url(#roundedRect)">
    <path d="M 29.062 24.601 L 25.971 27.202 26.235 57.338 C 26.549 93.040, 26.190 92.220, 36.876 81.636 L 43.500 75.076 51.838 74.788 L 60.176 74.500 61.540 71.250 L 62.903 68 52.155 68 L 41.406 68 37.500 72 C 35.352 74.200, 33.212 76, 32.745 76 C 32.278 76, 32.031 65.633, 32.198 52.962 C 32.449 33.817, 32.753 29.760, 34 28.950 C 34.899 28.365, 45.232 28.080, 59.788 28.237 C 80.090 28.457, 84.231 28.746, 85.022 30 C 85.543 30.825, 85.976 36.787, 85.985 43.250 L 86 55 89 55 L 92 55 92 41.577 C 92 28.595, 91.915 28.052, 89.411 25.077 L 86.822 22 59.488 22 L 32.153 22 29.062 24.601 M 83.459 66.880 C 79.686 68.593, 74 74.080, 74 76.007 C 74 76.477, 73.023 77.005, 71.828 77.180 C 68.906 77.610, 68.270 79.996, 70.895 80.683 C 72.053 80.986, 73 82.028, 73 83 C 73 83.972, 72.053 85.014, 70.895 85.317 C 68.326 85.989, 68.863 88.249, 71.764 88.972 C 72.928 89.263, 74.920 91.034, 76.190 92.908 C 79.594 97.931, 83.254 100.222, 88.710 100.746 C 96.226 101.468, 106.193 96.091, 102.066 93.541 C 101.552 93.223, 99.296 93.920, 97.051 95.090 C 93.947 96.708, 92.078 97.051, 89.235 96.524 C 85.495 95.831, 79 91.690, 79 89.999 C 79 89.504, 81.588 88.965, 84.750 88.800 C 89.061 88.575, 90.500 88.125, 90.500 87 C 90.500 85.844, 88.952 85.432, 83.750 85.204 C 77.866 84.947, 77 84.663, 77 82.991 C 77 81.250, 77.905 81.046, 86.750 80.786 C 94.623 80.555, 96.500 80.211, 96.500 79 C 96.500 77.803, 94.733 77.442, 87.750 77.211 C 82.938 77.052, 79 76.530, 79 76.050 C 79 74.333, 85.123 70.068, 88.497 69.435 C 91.006 68.964, 93.179 69.392, 96.542 71.020 C 104.095 74.677, 105.363 70.308, 97.872 66.434 C 94.108 64.487, 88.332 64.666, 83.459 66.880" stroke="none" fill="#c2a273" fill-rule="evenodd"/>
    <path d="M 0 57.008 L 0 114.016 60.250 113.758 L 120.500 113.500 120.758 56.750 L 121.017 0 60.508 0 L 0 0 0 57.008 M 0.468 57.500 C 0.468 88.850, 0.595 101.530, 0.750 85.679 C 0.904 69.827, 0.904 44.177, 0.749 28.679 C 0.594 13.180, 0.468 26.150, 0.468 57.500 M 29.062 24.601 L 25.971 27.202 26.235 57.338 C 26.549 93.040, 26.190 92.220, 36.876 81.636 L 43.500 75.076 51.838 74.788 L 60.176 74.500 61.540 71.250 L 62.903 68 52.155 68 L 41.406 68 37.500 72 C 35.352 74.200, 33.212 76, 32.745 76 C 32.278 76, 32.031 65.633, 32.198 52.962 C 32.449 33.817, 32.753 29.760, 34 28.950 C 34.899 28.365, 45.232 28.080, 59.788 28.237 C 80.090 28.457, 84.231 28.746, 85.022 30 C 85.543 30.825, 85.976 36.787, 85.985 43.250 L 86 55 89 55 L 92 55 92 41.577 C 92 28.595, 91.915 28.052, 89.411 25.077 L 86.822 22 59.488 22 L 32.153 22 29.062 24.601 M 83.459 66.880 C 79.686 68.593, 74 74.080, 74 76.007 C 74 76.477, 73.023 77.005, 71.828 77.180 C 68.906 77.610, 68.270 79.996, 70.895 80.683 C 72.053 80.986, 73 82.028, 73 83 C 73 83.972, 72.053 85.014, 70.895 85.317 C 68.326 85.989, 68.863 88.249, 71.764 88.972 C 72.928 89.263, 74.920 91.034, 76.190 92.908 C 79.594 97.931, 83.254 100.222, 88.710 100.746 C 96.226 101.468, 106.193 96.091, 102.066 93.541 C 101.552 93.223, 99.296 93.920, 97.051 95.090 C 93.947 96.708, 92.078 97.051, 89.235 96.524 C 85.495 95.831, 79 91.690, 79 89.999 C 79 89.504, 81.588 88.965, 84.750 88.800 C 89.061 88.575, 90.500 88.125, 90.500 87 C 90.500 85.844, 88.952 85.432, 83.750 85.204 C 77.866 84.947, 77 84.663, 77 82.991 C 77 81.250, 77.905 81.046, 86.750 80.786 C 94.623 80.555, 96.500 80.211, 96.500 79 C 96.500 77.803, 94.733 77.442, 87.750 77.211 C 82.938 77.052, 79 76.530, 79 76.050 C 79 74.333, 85.123 70.068, 88.497 69.435 C 91.006 68.964, 93.179 69.392, 96.542 71.020 C 104.095 74.677, 105.363 70.308, 97.872 66.434 C 94.108 64.487, 88.332 64.666, 83.459 66.880" stroke="none" fill="#14243c" fill-rule="evenodd"/>
  </g>
</svg>
